# xmcd CD database file
#
# Track frame offsets:
#	183
#	12010
#	23903
#	36873
#	48673
#	61410
#	73905
#	88063
#	102123
#	116320
#	131653
#	146615
#	162080
#	175025
#	187828
#	201098
#	211108
#	223678
#	236475
#	250393
#	263045
#	275975
#
# Disc length: 3821 seconds
#
# Revision: 0
# Processed by: cddbd v1.5.2PL0 Copyright (c) Steve Scherf et al.
# Submitted via: CDex 1.70beta1
#
DISCID=3f0eeb16
DTITLE=Johnny Dodds - Johnny Dodds 1926-1940 Part 1 disc 3
DYEAR=1900
DGENRE=Jazz
TTITLE0=Jimmie Bertrand's Washboard Wizards - Easy Come Easy Go Blues
TTITLE1=The Blues
TTITLE2=Stampede
TTITLE3=I'm Going Huntin'
TTITLE4=If You Want To Be My Sugar
TTITLE5=Papa
TTITLE6=Johnny Dodds Black Bottom Stompers - Weary Blues
TTITLE7=New Orleans Stomp
TTITLE8=Wild Man Blues 1
TTITLE9=Wild Man Blues 2
TTITLE10=Melancholy 1
TTITLE11=Melancholy 2
TTITLE12=Jelly Roll Morton - Wolverine Blues 1
TTITLE13=Wolverine Blues 2
TTITLE14=Mr Jelly Lord
TTITLE15=The State Street Ramblers - There'l Come A Day
TTITLE16=The Weary Way Blues
TTITLE17=Cootie Stomp
TTITLE18=Dixieland Thumpers - There'l Come A Day
TTITLE19=Weary Way Blues
TTITLE20=Jimmie Blyth's Owls - Weary Way Blues
TTITLE21=Poutin' Papa
EXTD=
EXTT0=
EXTT1=
EXTT2=
EXTT3=
EXTT4=
EXTT5=
EXTT6=
EXTT7=
EXTT8=
EXTT9=
EXTT10=
EXTT11=
EXTT12=
EXTT13=
EXTT14=
EXTT15=
EXTT16=
EXTT17=
EXTT18=
EXTT19=
EXTT20=
EXTT21=
PLAYORDER=
